PathFileType	4	(x/y/z)	S01_PSF_T06.trc
DataRate	CameraRate	NumFrames	NumMarkers	Units	OrigDataRate	OrigDataStartFrame	OrigNumFrames
240	240	8	51	mm	240	236	471
Frame#	Time	Sternum			R.Acromium			L.Acromium			Top.Head			R.ASIS			L.ASIS			R.PSIS			L.PSIS			R.Great.Tro			L.Great.Tro			R.Iliac.Crest			L.Iliac.Crest			V.Sacral			R.Thigh.Upper.Post			R.Thigh.Lower.Ant			R.Thigh.Lower.Post			R.Thigh.Upper.Ant			R.Knee.Lat			R.Knee.Med			R.Shank.Upper.Post			R.Shank.Lower.Ant			R.Shank.Lower.Post			R.Shank.Upper.Ant			R.Ankle.Lat			R.Ankle.Med			R.Heel.Upper			R.Heel.Med			R.Heel.Lat			R.Toe.Lat			R.Toe.Med			R.Toe.Tip			L.Thigh.Upper.Post			L.Thigh.Lower.Ant			L.Thigh.Lower.Post			L.Thigh.Upper.Ant			L.Knee.Lat			L.Knee.Med			L.Shank.Upper.Post			L.Shank.Lower.Ant			L.Shank.Lower.Post			L.Shank.Upper.Ant			L.Ankle.Lat			L.Ankle.Med			L.Heel.Upper			L.Heel.Med			L.Heel.Lat			L.Toe.Lat			L.Toe.Med			L.Toe.Tip			Cervical.Spine			Back			
		X1	Y1	Z1	X2	Y2	Z2	X3	Y3	Z3	X4	Y4	Z4	X5	Y5	Z5	X6	Y6	Z6	X7	Y7	Z7	X8	Y8	Z8	X9	Y9	Z9	X10	Y10	Z10	X11	Y11	Z11	X12	Y12	Z12	X13	Y13	Z13	X14	Y14	Z14	X15	Y15	Z15	X16	Y16	Z16	X17	Y17	Z17	X18	Y18	Z18	X19	Y19	Z19	X20	Y20	Z20	X21	Y21	Z21	X22	Y22	Z22	X23	Y23	Z23	X24	Y24	Z24	X25	Y25	Z25	X26	Y26	Z26	X27	Y27	Z27	X28	Y28	Z28	X29	Y29	Z29	X30	Y30	Z30	X31	Y31	Z31	X32	Y32	Z32	X33	Y33	Z33	X34	Y34	Z34	X35	Y35	Z35	X36	Y36	Z36	X37	Y37	Z37	X38	Y38	Z38	X39	Y39	Z39	X40	Y40	Z40	X41	Y41	Z41	X42	Y42	Z42	X43	Y43	Z43	X44	Y44	Z44	X45	Y45	Z45	X46	Y46	Z46	X47	Y47	Z47	X48	Y48	Z48	X49	Y49	Z49	X50	Y50	Z50	X51	Y51	Z51	

236	0.97917	-7.1639	1243.3	244.87	-93.825	1496.5	431.23	-138.08	1515.2	106.04	-58.075	1818.8	264.33	-59.001	995.5	409.03	-57.814	1001.1	140.74	-297.5	1041.5	308.9	-299.32	1033.1	206.96	-148.35	949.72	484.36	-154.66	948.22	60.236	-143.97	1091.3	475.62	-172.82	1080.1	66.818	-311.1	1000.5	256.78	-239.34	658.27	449.75	-189.19	573.57	419.98	-257.79	573.13	428.83	-166.67	659.47	441.73	-265.15	503.57	421.84	-250.72	510.08	274.88	-384.36	380.26	433.91	-361.5	280.24	389.85	-417.14	318.16	418.64	-331.79	345.32	410.77	-500.72	128.53	372.13	-465.97	132.26	281.07	-576.2	115.69	310.6	-565.31	85.593	280.89	-572.04	82.877	344.92	-392.46	34.282	408.92	-354.05	41.531	285.3	-291.11	46.796	342.93	-78.852	668.35	86.043	26.21	634.36	87.346	-36.309	590.12	107.23	-25.4	711.85	65.027	44.892	533.02	99.377	61.463	542.91	243.85	45.237	386.27	83.54	135.92	326.02	107.17	74.987	314.14	87.9	107.86	397.27	98.684	151.49	109.53	121.53	171	132.43	219.27	94.213	58.533	171.05	115.03	41.029	206.11	113.11	37.059	142.54	311.55	95.212	109.45	329.19	122.63	229.41	384.17	152.93	176.12	-197.49	1569.3	283.81	-302.32	1262	299.97
237	0.98333	-1.1859	1242.5	244.26	-88.41	1495.7	430.33	-132.23	1514.1	104.99	-52.502	1818	263.3	-53.018	994.65	408.77	-51.413	1000.3	140.42	-291.44	1040.5	308.11	-293.04	1032.1	206.12	-142.52	948.88	483.91	-147.93	947.4	59.821	-138.27	1090.5	475.09	-166.36	1079	66.129	-304.88	999.48	255.97	-233.68	657.61	449.55	-183.5	572.79	420.2	-252.12	572.43	428.8	-160.97	658.74	441.78	-259.66	502.85	421.99	-244.6	508.98	275.13	-380.18	380.8	433.98	-358.37	280.44	390.17	-413.64	319.06	418.78	-327.98	345.23	411.02	-499.33	130.16	372.55	-464.45	133.65	281.55	-574.91	118.3	311.02	-564.37	88.227	281.17	-571.14	85.313	345.21	-392.34	34.283	408.97	-353.96	41.542	285.4	-290.91	46.641	342.95	-71.662	667.78	86.261	33.464	634.02	87.957	-29.052	589.65	107.57	-18.208	711.43	65.464	52.216	532.59	99.95	68.436	542.88	244.06	51.538	385.91	84.115	141.46	324.76	108.15	80.547	313.5	88.565	114.14	396.27	99.636	154.36	108.6	122.17	173.86	130.84	220.14	95.943	58.899	171.46	116.36	40.925	206.52	114.49	37.145	142.95	313.98	91.694	110.65	331.8	118.41	230.71	387.48	147.8	177.69	-191.93	1568.4	282.67	-296.58	1261	299
238	0.9875	4.8167	1241.8	243.64	-82.982	1494.9	429.41	-126.38	1513.1	103.91	-46.912	1817.2	262.25	-47.004	993.85	408.48	-44.995	999.61	140.09	-285.34	1039.6	307.32	-286.74	1031.1	205.29	-136.64	948.05	483.46	-141.18	946.67	59.383	-132.5	1089.7	474.56	-159.87	1078	65.423	-298.64	998.5	255.16	-227.89	656.95	449.36	-177.67	572.02	420.43	-246.29	571.71	428.78	-155.14	658.03	441.84	-254	502.12	422.18	-238.31	507.88	275.4	-375.84	381.38	434.06	-355.12	280.71	390.52	-410	320.02	418.95	-324.03	345.19	411.28	-497.82	131.89	373	-462.79	135.13	282.05	-573.49	121.08	311.45	-563.3	91.039	281.47	-570.14	87.915	345.52	-392.21	34.3	409.03	-353.87	41.552	285.51	-290.7	46.485	342.96	-64.476	667.27	86.462	40.708	633.74	88.527	-21.798	589.24	107.89	-11.016	711.07	65.861	59.572	532.26	100.5	75.394	542.93	244.27	57.856	385.66	84.624	146.98	323.57	109.09	86.092	312.97	89.157	120.44	395.36	100.55	157.07	107.73	122.74	176.58	129.33	220.91	97.515	59.368	171.79	117.48	40.926	206.84	115.66	37.315	143.28	316.2	88.13	111.75	334.24	114.13	231.89	390.62	142.55	179.13	-186.35	1567.6	281.5	-290.81	1260	298.01
239	0.99167	10.842	1241.2	243.01	-77.541	1494.3	428.48	-120.5	1512.1	102.81	-41.303	1816.5	261.18	-40.964	993.1	408.17	-38.563	998.99	139.75	-279.22	1038.7	306.55	-280.4	1030.2	204.46	-130.7	947.24	483	-134.4	946.03	58.923	-126.66	1088.9	474	-153.35	1077.1	64.701	-292.37	997.59	254.35	-221.97	656.29	449.17	-171.67	571.27	420.69	-240.31	570.99	428.78	-149.19	657.34	441.9	-248.15	501.39	422.39	-231.84	506.76	275.7	-371.34	382.02	434.15	-351.73	281.03	390.9	-406.19	321.04	419.14	-319.94	345.18	411.58	-496.19	133.74	373.48	-460.99	136.69	282.59	-571.91	124.04	311.91	-562.1	94.035	281.79	-569.02	90.693	345.84	-392.06	34.335	409.09	-353.78	41.566	285.62	-290.49	46.325	342.97	-57.295	666.84	86.638	47.939	633.52	89.05	-14.553	588.9	108.18	-3.826	710.77	66.213	66.957	532.01	101.02	82.325	543.04	244.46	64.192	385.52	85.059	152.48	322.47	109.97	91.627	312.54	89.667	126.73	394.53	101.42	159.63	106.94	123.22	179.18	127.9	221.61	98.962	59.927	172.05	118.44	41.028	207.1	116.68	37.56	143.54	318.24	84.553	112.72	336.53	109.83	232.94	393.6	137.23	180.44	-180.77	1566.8	280.32	-285.02	1259.2	297.03
240	0.99583	16.888	1240.7	242.37	-72.084	1493.7	427.54	-114.62	1511.3	101.69	-35.676	1815.9	260.09	-34.9	992.41	407.84	-32.121	998.45	139.4	-273.07	1037.8	305.8	-274.05	1029.4	203.64	-124.72	946.44	482.53	-127.62	945.48	58.441	-120.75	1088.3	473.44	-146.81	1076.3	63.967	-286.07	996.73	253.55	-215.91	655.63	448.98	-165.51	570.54	420.98	-234.16	570.27	428.8	-143.1	656.68	441.98	-242.13	500.67	422.64	-225.19	505.63	276.03	-366.66	382.7	434.27	-348.19	281.42	391.32	-402.22	322.14	419.35	-315.7	345.22	411.9	-494.42	135.71	373.99	-459.04	138.35	283.17	-570.15	127.19	312.39	-560.76	97.225	282.12	-567.77	93.656	346.18	-391.89	34.394	409.16	-353.69	41.589	285.74	-290.26	46.159	342.96	-50.122	666.49	86.78	55.155	633.37	89.519	-7.3177	588.63	108.44	3.3625	710.54	66.51	74.363	531.86	101.52	89.223	543.21	244.65	70.541	385.49	85.414	157.96	321.46	110.79	97.149	312.22	90.09	133.04	393.8	102.23	162.06	106.22	123.62	181.66	126.57	222.21	100.31	60.565	172.23	119.25	41.224	207.28	117.57	37.871	143.75	320.11	80.999	113.57	338.68	105.56	233.86	396.43	131.89	181.59	-175.16	1566.1	279.11	-279.22	1258.4	296.04
241	1	22.953	1240.2	241.72	-66.613	1493.1	426.59	-108.71	1510.4	100.56	-30.029	1815.3	258.97	-28.816	991.77	407.48	-25.674	998	139.03	-266.9	1037	305.06	-267.69	1028.6	202.83	-118.69	945.68	482.05	-120.83	945.02	57.939	-114.77	1087.7	472.86	-140.26	1075.5	63.224	-279.76	995.93	252.76	-209.73	654.97	448.8	-159.17	569.82	421.31	-227.84	569.54	428.85	-136.88	656.06	442.08	-235.9	499.94	422.93	-218.34	504.49	276.4	-361.8	383.44	434.4	-344.51	281.88	391.77	-398.07	323.3	419.59	-311.3	345.31	412.25	-492.49	137.8	374.53	-456.91	140.11	283.78	-568.21	130.52	312.89	-559.25	100.62	282.46	-566.38	96.812	346.52	-391.71	34.481	409.23	-353.59	41.626	285.86	-290.01	45.985	342.95	-42.958	666.23	86.883	62.355	633.29	89.927	-0.094863	588.43	108.66	10.549	710.37	66.749	81.784	531.79	101.97	96.085	543.46	244.82	76.896	385.57	85.685	163.41	320.53	111.55	102.65	312.01	90.423	139.33	393.15	102.98	164.35	105.58	123.94	184.04	125.34	222.72	101.58	61.268	172.36	119.96	41.505	207.39	118.36	38.237	143.9	321.83	77.499	114.3	340.69	101.36	234.66	399.11	126.58	182.6	-169.55	1565.5	277.89	-273.41	1257.7	295.05
242	1.0042	29.032	1239.8	241.06	-61.126	1492.7	425.63	-102.8	1509.7	99.418	-24.363	1814.9	257.83	-22.718	991.19	407.09	-19.225	997.63	138.66	-260.71	1036.3	304.34	-261.32	1027.9	202.04	-112.62	944.94	481.56	-114.06	944.65	57.423	-108.71	1087.2	472.28	-133.71	1074.9	62.476	-273.44	995.2	251.98	-203.41	654.32	448.64	-152.67	569.13	421.67	-221.35	568.8	428.93	-130.53	655.47	442.18	-229.48	499.21	423.27	-211.3	503.34	276.82	-356.74	384.22	434.56	-340.66	282.4	392.27	-393.73	324.54	419.86	-306.73	345.44	412.65	-490.4	140.02	375.11	-454.62	141.97	284.44	-566.06	134.06	313.41	-557.57	104.22	282.81	-564.83	100.17	346.87	-391.49	34.603	409.32	-353.48	41.685	285.98	-289.76	45.801	342.94	-35.805	666.05	86.94	69.536	633.28	90.271	7.113	588.31	108.83	17.731	710.27	66.924	89.209	531.81	102.38	102.91	543.77	244.97	83.242	385.74	85.871	168.81	319.69	112.24	108.13	311.89	90.665	145.6	392.59	103.66	166.53	105.02	124.2	186.32	124.22	223.15	102.78	62.02	172.42	120.57	41.858	207.46	119.06	38.649	144	323.41	74.083	114.91	342.58	97.244	235.33	401.64	121.34	183.47	-163.92	1564.9	276.66	-267.58	1257	294.07
243	1.0083	35.123	1239.5	240.4	-55.625	1492.4	424.66	-96.867	1509	98.266	-18.68	1814.5	256.66	-16.609	990.67	406.68	-12.778	997.36	138.27	-254.5	1035.6	303.65	-254.95	1027.3	201.27	-106.51	944.23	481.07	-107.31	944.38	56.896	-102.6	1086.7	471.68	-127.17	1074.3	61.729	-267.11	994.54	251.22	-196.95	653.67	448.5	-145.99	568.46	422.07	-214.68	568.05	429.05	-124.04	654.91	442.31	-222.85	498.49	423.65	-204.06	502.19	277.28	-351.49	385.06	434.75	-336.63	283	392.81	-389.2	325.86	420.17	-301.97	345.62	413.08	-488.14	142.37	375.73	-452.13	143.92	285.12	-563.69	137.8	313.96	-555.69	108.03	283.19	-563.11	103.74	347.23	-391.26	34.767	409.4	-353.35	41.773	286.11	-289.49	45.604	342.92	-28.667	665.95	86.948	76.696	633.34	90.545	14.302	588.25	108.94	24.907	710.24	67.032	96.625	531.9	102.75	109.69	544.14	245.1	89.563	385.99	85.972	174.17	318.92	112.85	113.57	311.87	90.822	151.84	392.1	104.27	168.59	104.54	124.4	188.5	123.21	223.5	103.92	62.806	172.44	121.12	42.271	207.47	119.71	39.095	144.06	324.86	70.778	115.42	344.35	93.258	235.89	404.02	116.23	184.21	-158.28	1564.5	275.42	-261.74	1256.4	293.09
